<?xml version="1.0" standalone="no"?>
<!DOCTYPE svg PUBLIC "-//W3C//DTD SVG 20010904//EN"
 "http://www.w3.org/TR/2001/REC-SVG-20010904/DTD/svg10.dtd">
<svg version="1.0" xmlns="http://www.w3.org/2000/svg"
 width="143.000000pt" height="173.000000pt" viewBox="0 0 143.000000 173.000000"
 preserveAspectRatio="xMidYMid meet">

<g transform="translate(0.000000,173.000000) scale(0.100000,-0.100000)"
fill="#000000" stroke="none">
<path d="M1138 1383 l-48 -14 0 -209 0 -208 -32 -11 c-49 -14 -331 -93 -343
-95 -6 0 -12 76 -15 205 l-5 206 -55 -16 -55 -17 -3 -487 c-1 -268 2 -487 6
-487 5 0 32 7 60 15 l52 16 0 218 0 217 148 42 c82 23 151 42 155 42 4 0 7
-97 7 -215 0 -184 2 -215 15 -215 13 0 15 31 15 220 0 220 0 221 23 229 l22 8
3 -219 2 -220 28 7 c15 3 44 11 65 16 l37 10 0 489 c0 553 9 501 -82 473z"/>
<path d="M1010 1154 c0 -152 3 -195 13 -192 9 4 13 54 15 196 2 166 0 192 -13
192 -13 0 -15 -27 -15 -196z"/>
<path d="M490 715 c0 -424 2 -485 15 -485 8 0 15 1 16 3 0 1 3 219 6 485 l5
482 -21 0 -21 0 0 -485z"/>
<path d="M853 693 c-77 -22 -123 -40 -123 -48 0 -11 15 -9 68 6 37 10 93 26
125 35 34 10 57 22 57 30 0 8 -1 14 -2 13 -2 -1 -58 -17 -125 -36z"/>
</g>
</svg>
